<?xml version="1.0" standalone="no"?>
<!DOCTYPE svg PUBLIC "-//W3C//DTD SVG 20010904//EN"
 "http://www.w3.org/TR/2001/REC-SVG-20010904/DTD/svg10.dtd">
<svg version="1.0" xmlns="http://www.w3.org/2000/svg"
 width="500.000000pt" height="500.000000pt" viewBox="0 0 500.000000 500.000000"
 preserveAspectRatio="xMidYMid meet">

<g transform="translate(0.000000,500.000000) scale(0.100000,-0.100000)"
fill="#000000" stroke="none">
<path d="M500 3701 l0 -431 123 0 c67 0 151 -5 187 -10 250 -40 452 -181 567
-397 59 -111 83 -205 89 -348 5 -107 3 -131 -20 -219 -57 -220 -199 -400 -391
-496 -127 -63 -214 -82 -397 -88 l-158 -4 0 -434 0 -434 103 0 c541 1 920 126
1193 395 268 265 418 602 467 1050 l12 110 29 -50 c16 -27 80 -135 141 -240
342 -577 449 -760 559 -947 l121 -208 453 0 c248 0 452 2 452 5 0 2 -19 35
-41 72 -23 37 -85 142 -139 233 -108 184 -261 443 -460 780 -230 389 -260 441
-260 450 0 10 69 129 490 840 191 322 359 608 388 658 l24 42 -454 -2 -453 -3
-51 -85 c-59 -99 -300 -507 -593 -1004 l-206 -350 -12 120 c-39 371 -142 646
-338 899 -205 264 -471 423 -830 496 -90 18 -153 23 -352 26 l-243 5 0 -431z"/>
<path d="M705 2757 c-67 -22 -101 -44 -139 -89 -38 -44 -66 -118 -66 -173 0
-88 66 -187 154 -232 44 -23 63 -27 136 -27 73 0 92 4 136 27 88 45 154 144
154 232 0 100 -70 205 -162 245 -64 27 -158 35 -213 17z"/>
</g>
</svg>
